<svg xmlns="http://www.w3.org/2000/svg" viewBox="0 0 370.9 100"><title>Asset 2</title><g id="Layer_2" data-name="Layer 2"><g id="Layer_1-2" data-name="Layer 1"><g id="Layer_2-2" data-name="Layer 2"><g id="Layer_1-2-2" data-name="Layer 1-2"><path d="M50,0a50,50,0,1,0,50,50A50,50,0,0,0,50,0ZM48.47,83.4A5.45,5.45,0,1,1,54,78.05,5.45,5.45,0,0,1,48.47,83.4ZM70.22,56.72c-.37,0-.72,0-1.08,0a9.18,9.18,0,0,1-10.28,3.61A9.16,9.16,0,0,1,45.38,67,9.17,9.17,0,0,1,27.9,64.69a15.15,15.15,0,0,1,.91-30,14.37,14.37,0,0,1,21.91-11A14.35,14.35,0,0,1,73,28.24a14.37,14.37,0,0,1-2.74,28.48Z"/></g></g><path d="M132.85,57.11h3.69c2.81,0,4.22,1.18,4.22,3.52a4.92,4.92,0,0,1-1.51,3.83,5.91,5.91,0,0,1-4.15,1.38h-4.29a3.87,3.87,0,0,1-3.92-2.68q-2.51,2.69-4.85,2.68h-3.82a7,7,0,0,1-6-3.14A13.84,13.84,0,0,1,110,54.47a22.67,22.67,0,0,1,4.44-13.75q4.44-6.07,10-6.07a6.64,6.64,0,0,1,6.26,3.56q1.68-3,4.39-3a3.17,3.17,0,0,1,2.46,1.12,4,4,0,0,1,1,2.77,8.69,8.69,0,0,1-.53,2.68l-.37,1.08Zm-12.15.2h.83a3.56,3.56,0,0,0,3.65-2.68l2.35-6.93a7.27,7.27,0,0,0,.47-2.28,2.46,2.46,0,0,0-.89-1.88,3.08,3.08,0,0,0-2.13-.8q-2.45,0-4.75,3.4a12.39,12.39,0,0,0-2.31,7C117.92,55.94,118.84,57.31,120.7,57.31Z"/><path d="M151,57.11h3.51q4.26,0,4.26,3.56a4.92,4.92,0,0,1-1.49,3.81,6,6,0,0,1-4.17,1.36h-6a5.4,5.4,0,0,1-3.92-1.4,5,5,0,0,1-1.44-3.77,15,15,0,0,1,1-4.12l13.53-39.79.37-1.09c1-3,2.67-4.48,4.92-4.48a3.08,3.08,0,0,1,2.4,1.12,4,4,0,0,1,1,2.68,8.72,8.72,0,0,1-.5,2.73L164,18.8Z"/><path d="M177,35.21h1q4.26,0,4.26,3.57a4.89,4.89,0,0,1-1.51,3.8,6,6,0,0,1-4.15,1.36h-2.45l-4.49,13.17h3.75q4.26,0,4.26,3.56a4.92,4.92,0,0,1-1.49,3.81A6,6,0,0,1,172,65.84h-6a5.66,5.66,0,0,1-4-1.4,5,5,0,0,1-1.49-3.81,10.5,10.5,0,0,1,.6-3.28l.64-1.76,4-11.65h-.5c-2.5,0-3.76-1.16-3.76-3.48a5,5,0,0,1,1.5-3.87,5.88,5.88,0,0,1,4.16-1.38h1.55L170.43,30l.37-1.08q1.57-4.45,5-4.45a3.09,3.09,0,0,1,2.36,1.1,3.91,3.91,0,0,1,1,2.67,11.48,11.48,0,0,1-.87,3.84Z"/><path d="M203.75,57.11h3.69c2.81,0,4.22,1.18,4.22,3.52a5,5,0,0,1-1.51,3.83A5.91,5.91,0,0,1,206,65.84h-4.29a3.87,3.87,0,0,1-3.92-2.68q-2.5,2.69-4.85,2.68h-3.82a7,7,0,0,1-6-3.14,13.84,13.84,0,0,1-2.26-8.23,22.67,22.67,0,0,1,4.44-13.75q4.44-6.07,10-6.07a6.64,6.64,0,0,1,6.26,3.56q1.68-3,4.39-3a3.17,3.17,0,0,1,2.46,1.12,4,4,0,0,1,1,2.77,8.46,8.46,0,0,1-.54,2.68l-.36,1.08Zm-12.15.2h.83a3.56,3.56,0,0,0,3.65-2.68l2.35-6.93a7.27,7.27,0,0,0,.47-2.28,2.46,2.46,0,0,0-.89-1.88,3.08,3.08,0,0,0-2.13-.8q-2.44,0-4.75,3.4a12.39,12.39,0,0,0-2.31,7C188.82,55.94,189.74,57.31,191.6,57.31Z"/><path d="M253.22,57.11h4c2.82,0,4.22,1.19,4.22,3.56a4.88,4.88,0,0,1-1.49,3.81,5.88,5.88,0,0,1-4.13,1.36H249a4.78,4.78,0,0,1-3.58-1.4A5,5,0,0,1,244,60.75a14,14,0,0,1,.91-4.24l3.14-9.17a4.61,4.61,0,0,0,.27-1.48c0-1.73-.73-2.6-2.21-2.6a4.68,4.68,0,0,0-3.38,1.84A13.39,13.39,0,0,0,240.09,50l-3.75,11c-1.23,3.57-3,5.36-5.36,5.36a3,3,0,0,1-2.34-1.08,3.68,3.68,0,0,1-1-2.56,9,9,0,0,1,.5-2.73l.37-1.08,3.78-11.17a7.57,7.57,0,0,0,.5-2.32,2.09,2.09,0,0,0-.67-1.54,2.16,2.16,0,0,0-1.57-.66q-3.62,0-5.73,6.24L220.93,61c-1.22,3.6-3,5.4-5.32,5.4a3.1,3.1,0,0,1-2.36-1.06,3.65,3.65,0,0,1-1-2.58,9,9,0,0,1,.5-2.73l.37-1.08,6.67-19.61q1.39-4.12,4.22-4.13t3.61,3.29a17.45,17.45,0,0,1,3.7-3.09,7.45,7.45,0,0,1,3.5-.76c3,0,5.24,1.56,6.73,4.69q3.75-4.7,8.44-4.69a7.2,7.2,0,0,1,5.38,2.22,7.57,7.57,0,0,1,2.16,5.47,13,13,0,0,1-.74,4.2Z"/><path d="M270.73,54.11c0,2,1.27,3,3.79,3h10q4.21,0,4.22,3.56a4.89,4.89,0,0,1-1.5,3.81A5.93,5.93,0,0,1,283,65.84h-9.47q-5.3,0-8.06-3.12t-2.76-9.13a21,21,0,0,1,4.37-13.33q4.36-5.61,10.4-5.61a9.42,9.42,0,0,1,7.05,2.74,10,10,0,0,1,2.66,7.23q0,5.4-3.68,8c-1.36,1-3.4,1.48-6.1,1.48Zm1.61-7.29H276c2.38,0,3.55-.62,3.48-1.88a2,2,0,0,0-2.31-2.12Q274.11,42.82,272.34,46.82Z"/><path d="M314.77,57.11h4q4.26,0,4.26,3.56a4.9,4.9,0,0,1-1.51,3.81,6,6,0,0,1-4.15,1.36h-7A4.52,4.52,0,0,1,307,64.36a5.27,5.27,0,0,1-1.39-3.73,14.27,14.27,0,0,1,.94-4.08l2.95-8.73a8.08,8.08,0,0,0,.5-2.2A2.11,2.11,0,0,0,309.3,44a2.42,2.42,0,0,0-1.76-.68q-3.45,0-5.56,6.2l-4,11.62q-1.78,5.28-5.29,5.28a3.3,3.3,0,0,1-2.45-1,3.54,3.54,0,0,1-1-2.56,8.75,8.75,0,0,1,.53-2.69l.37-1.08L297,39.1q1.31-3.89,4.45-3.89a3.81,3.81,0,0,1,3.69,2.72c2.38-2.18,4.66-3.28,6.83-3.28a6.84,6.84,0,0,1,5.19,2.16,7.68,7.68,0,0,1,2,5.49,12.81,12.81,0,0,1-.74,4Z"/><path d="M341,35.21h1q4.24,0,4.25,3.57a4.88,4.88,0,0,1-1.5,3.8,6,6,0,0,1-4.16,1.36h-2.44l-4.49,13.17h3.75c2.84,0,4.25,1.19,4.25,3.56a4.88,4.88,0,0,1-1.49,3.81,5.93,5.93,0,0,1-4.17,1.36h-6a5.69,5.69,0,0,1-4-1.4,5,5,0,0,1-1.49-3.81,10.25,10.25,0,0,1,.61-3.28l.63-1.76,3.95-11.65h-.5q-3.75,0-3.75-3.48A5,5,0,0,1,327,36.59a5.89,5.89,0,0,1,4.17-1.38h1.54L334.47,30l.36-1.08c1.05-3,2.71-4.45,5-4.45a3.07,3.07,0,0,1,2.36,1.1,3.87,3.87,0,0,1,1,2.67,11.48,11.48,0,0,1-.87,3.84Z"/><path d="M353,54.11q0,3,3.79,3h9.94c2.82,0,4.22,1.19,4.22,3.56a4.88,4.88,0,0,1-1.49,3.81,5.93,5.93,0,0,1-4.17,1.36h-9.47q-5.29,0-8.06-3.12T345,53.59a21,21,0,0,1,4.37-13.33q4.37-5.61,10.4-5.61a9.42,9.42,0,0,1,7,2.74,10,10,0,0,1,2.66,7.23q0,5.4-3.68,8-2.06,1.48-6.1,1.48Zm1.61-7.29h3.68c2.39,0,3.55-.62,3.49-1.88a2,2,0,0,0-2.31-2.12Q356.33,42.82,354.56,46.82Z"/></g></g></svg>